<svg width="1172" height="502" viewBox="0 0 1172 502" fill="none" xmlns="http://www.w3.org/2000/svg">
<circle opacity="0.6" cx="5" cy="138" r="4" fill="#EEEEEE"/>
<circle opacity="0.6" cx="5" cy="78" r="4" fill="#EEEEEE"/>
<circle opacity="0.6" cx="5" cy="18" r="4" fill="#EEEEEE"/>
<circle opacity="0.6" cx="90" cy="138" r="4" fill="#EEEEEE"/>
<circle opacity="0.6" cx="90" cy="78" r="4" fill="#EEEEEE"/>
<circle opacity="0.6" cx="90" cy="18" r="4" fill="#EEEEEE"/>
<circle opacity="0.6" cx="175" cy="138" r="4" fill="#EEEEEE"/>
<circle opacity="0.6" cx="175" cy="78" r="4" fill="#EEEEEE"/>
<circle opacity="0.6" cx="175" cy="18" r="4" fill="#EEEEEE"/>
<circle opacity="0.6" cx="345" cy="138" r="4" fill="#EEEEEE"/>
<circle opacity="0.6" cx="345" cy="78" r="4" fill="#EEEEEE"/>
<circle opacity="0.6" cx="345" cy="18" r="4" fill="#EEEEEE"/>
<circle opacity="0.6" cx="260" cy="138" r="4" fill="#EEEEEE"/>
<circle opacity="0.6" cx="260" cy="78" r="4" fill="#EEEEEE"/>
<circle opacity="0.6" cx="260" cy="18" r="4" fill="#EEEEEE"/>
<circle opacity="0.6" cx="5" cy="198" r="4" fill="#EEEEEE"/>
<circle opacity="0.6" cx="90" cy="198" r="4" fill="#EEEEEE"/>
<circle opacity="0.6" cx="175" cy="198" r="4" fill="#EEEEEE"/>
<circle opacity="0.6" cx="345" cy="198" r="4" fill="#EEEEEE"/>
<circle opacity="0.6" cx="260" cy="198" r="4" fill="#EEEEEE"/>
<circle opacity="0.6" cx="90" cy="258" r="4" fill="#EEEEEE"/>
<circle opacity="0.6" cx="4" cy="258" r="4" fill="#EEEEEE"/>
<circle opacity="0.6" cx="175" cy="258" r="4" fill="#EEEEEE"/>
<circle opacity="0.6" cx="345" cy="258" r="4" fill="#EEEEEE"/>
<circle opacity="0.6" cx="260" cy="258" r="4" fill="#EEEEEE"/>
<circle opacity="0.6" cx="90" cy="318" r="4" fill="#EEEEEE"/>
<circle opacity="0.6" cx="4" cy="318" r="4" fill="#EEEEEE"/>
<circle opacity="0.6" cx="175" cy="318" r="4" fill="#EEEEEE"/>
<circle opacity="0.6" cx="345" cy="318" r="4" fill="#EEEEEE"/>
<circle opacity="0.6" cx="260" cy="318" r="4" fill="#EEEEEE"/>
<circle opacity="0.6" cx="90" cy="378" r="4" fill="#EEEEEE"/>
<circle opacity="0.6" cx="4" cy="378" r="4" fill="#EEEEEE"/>
<circle opacity="0.6" cx="175" cy="378" r="4" fill="#EEEEEE"/>
<circle opacity="0.6" cx="345" cy="378" r="4" fill="#EEEEEE"/>
<circle opacity="0.6" cx="260" cy="378" r="4" fill="#EEEEEE"/>
<circle opacity="0.6" cx="90" cy="438" r="4" fill="#EEEEEE"/>
<circle opacity="0.6" cx="4" cy="438" r="4" fill="#EEEEEE"/>
<circle opacity="0.6" cx="175" cy="438" r="4" fill="#EEEEEE"/>
<circle opacity="0.6" cx="345" cy="438" r="4" fill="#EEEEEE"/>
<circle opacity="0.6" cx="260" cy="438" r="4" fill="#EEEEEE"/>
<circle opacity="0.6" cx="90" cy="498" r="4" fill="#EEEEEE"/>
<circle opacity="0.6" cx="4" cy="498" r="4" fill="#EEEEEE"/>
<circle opacity="0.6" cx="175" cy="498" r="4" fill="#EEEEEE"/>
<circle opacity="0.6" cx="345" cy="498" r="4" fill="#EEEEEE"/>
<circle opacity="0.6" cx="260" cy="498" r="4" fill="#EEEEEE"/>
<path d="M694.968 36L689.832 22.608L688.2 25.68V36H682.92V2.4H688.2V17.04L695.112 2.4H700.392L693.048 17.376L700.392 36H694.968ZM843.748 30.912H848.836V36H843.748V30.912Z" fill="#333333"/>
<path d="M707.643 10.128V28.272C707.643 30.48 708.555 31.584 710.379 31.584C712.203 31.584 713.115 30.48 713.115 28.272V10.128C713.115 7.92 712.203 6.816 710.379 6.816C708.555 6.816 707.643 7.92 707.643 10.128ZM702.363 27.936V10.464C702.363 7.776 703.051 5.696 704.427 4.224C705.803 2.752 707.787 2.016 710.379 2.016C712.971 2.016 714.955 2.752 716.331 4.224C717.707 5.696 718.395 7.776 718.395 10.464V27.936C718.395 30.624 717.707 32.704 716.331 34.176C714.955 35.648 712.971 36.384 710.379 36.384C707.787 36.384 705.803 35.648 704.427 34.176C703.051 32.704 702.363 30.624 702.363 27.936ZM727.106 21.6V36H721.826V2.4H727.106V16.8H733.106V2.4H738.482V36H733.106V21.6H727.106ZM740.775 7.2V2.4H757.095V7.2H751.575V36H746.295V7.2H740.775ZM771.132 2.4L776.508 36H771.18L770.268 29.904H763.788L762.876 36H758.028L763.404 2.4H771.132ZM767.004 8.352L764.46 25.344H769.548L767.004 8.352ZM791.015 36L785.879 22.608L784.247 25.68V36H778.967V2.4H784.247V17.04L791.159 2.4H796.439L789.095 17.376L796.439 36H791.015ZM797.306 7.2V2.4H813.626V7.2H808.106V36H802.826V7.2H797.306ZM823.727 36H815.951V2.4H821.231V15.024H823.727C828.975 15.024 831.599 17.792 831.599 23.328V27.696C831.599 33.232 828.975 36 823.727 36ZM821.231 31.2H823.727C824.591 31.2 825.231 30.96 825.647 30.48C826.095 30 826.319 29.184 826.319 28.032V22.992C826.319 21.84 826.095 21.024 825.647 20.544C825.231 20.064 824.591 19.824 823.727 19.824H821.231V31.2ZM839.903 36H834.623V2.4H839.903V36Z" fill="#00D3BE"/>
<path d="M688.248 418H682.968V384.4H696.888V389.2H688.248V418ZM806.436 412.912H811.524V418H806.436V412.912Z" fill="#333333"/>
<path d="M708.227 384.4C713.475 384.4 716.099 387.168 716.099 392.704V397.072C716.099 402.608 713.475 405.376 708.227 405.376H705.731V418H700.451V384.4H708.227ZM708.227 389.2H705.731V400.576H708.227C709.091 400.576 709.731 400.336 710.147 399.856C710.595 399.376 710.819 398.56 710.819 397.408V392.368C710.819 391.216 710.595 390.4 710.147 389.92C709.731 389.44 709.091 389.2 708.227 389.2ZM730.257 384.4L735.633 418H730.305L729.393 411.904H722.913L722.001 418H717.153L722.529 384.4H730.257ZM726.129 390.352L723.585 407.344H728.673L726.129 390.352ZM747.5 418V414.208H745.532C740.284 414.208 737.66 411.44 737.66 405.904V396.736C737.66 391.2 740.284 388.432 745.532 388.432H747.5V384.4H752.684V388.432H754.652C759.9 388.432 762.524 391.2 762.524 396.736V405.904C762.524 411.44 759.9 414.208 754.652 414.208H752.684V418H747.5ZM754.652 393.088H752.684V409.6H754.652C756.412 409.6 757.292 408.48 757.292 406.24V396.4C757.292 394.192 756.412 393.088 754.652 393.088ZM747.5 409.6V393.088H745.532C743.772 393.088 742.892 394.192 742.892 396.4V406.24C742.892 408.48 743.772 409.6 745.532 409.6H747.5ZM775.916 402.592L771.5 418H766.076V384.4H770.78V405.664L772.7 398.272L777.02 384.4H782.828V418H778.076V394.336L775.916 402.592ZM798.609 418L793.473 404.608L791.841 407.68V418H786.561V384.4H791.841V399.04L798.753 384.4H804.033L796.689 399.376L804.033 418H798.609Z" fill="#00D3BE"/>
<rect x="681" y="63" width="64" height="2" fill="#333333" fill-opacity="0.22"/>
<rect x="681" y="448" width="64" height="2" fill="#333333" fill-opacity="0.22"/>
<rect x="681" y="333" width="491" height="2" fill="#333333" fill-opacity="0.1"/>
</svg>
