<svg width="311" height="616" viewBox="0 0 311 616" fill="none" xmlns="http://www.w3.org/2000/svg">
<circle cx="105" cy="4" r="4" fill="#D9D9D9"/>
<circle cx="206" cy="4" r="4" fill="#D9D9D9"/>
<circle cx="307" cy="4" r="4" fill="#D9D9D9"/>
<circle cx="4" cy="80" r="4" fill="#D9D9D9"/>
<circle cx="105" cy="80" r="4" fill="#D9D9D9"/>
<circle cx="206" cy="80" r="4" fill="#D9D9D9"/>
<circle cx="307" cy="80" r="4" fill="#D9D9D9"/>
<circle cx="4" cy="156" r="4" fill="#D9D9D9"/>
<circle cx="105" cy="156" r="4" fill="#D9D9D9"/>
<circle cx="206" cy="156" r="4" fill="#D9D9D9"/>
<circle cx="307" cy="156" r="4" fill="#D9D9D9"/>
<circle cx="4" cy="232" r="4" fill="#D9D9D9"/>
<circle cx="105" cy="232" r="4" fill="#D9D9D9"/>
<circle cx="206" cy="232" r="4" fill="#D9D9D9"/>
<circle cx="307" cy="232" r="4" fill="#D9D9D9"/>
<circle cx="4" cy="308" r="4" fill="#D9D9D9"/>
<circle cx="105" cy="308" r="4" fill="#D9D9D9"/>
<circle cx="206" cy="308" r="4" fill="#D9D9D9"/>
<circle cx="307" cy="308" r="4" fill="#D9D9D9"/>
<circle cx="4" cy="384" r="4" fill="#D9D9D9"/>
<circle cx="105" cy="384" r="4" fill="#D9D9D9"/>
<circle cx="206" cy="384" r="4" fill="#D9D9D9"/>
<circle cx="307" cy="384" r="4" fill="#D9D9D9"/>
<circle cx="4" cy="460" r="4" fill="#D9D9D9"/>
<circle cx="105" cy="460" r="4" fill="#D9D9D9"/>
<circle cx="206" cy="460" r="4" fill="#D9D9D9"/>
<circle cx="307" cy="460" r="4" fill="#D9D9D9"/>
<circle cx="4" cy="536" r="4" fill="#D9D9D9"/>
<circle cx="105" cy="536" r="4" fill="#D9D9D9"/>
<circle cx="206" cy="536" r="4" fill="#D9D9D9"/>
<circle cx="307" cy="536" r="4" fill="#D9D9D9"/>
<circle cx="4" cy="612" r="4" fill="#D9D9D9"/>
<circle cx="105" cy="612" r="4" fill="#D9D9D9"/>
<circle cx="206" cy="612" r="4" fill="#D9D9D9"/>
<circle cx="307" cy="612" r="4" fill="#D9D9D9"/>
</svg>
