<svg width="433" height="488" viewBox="0 0 433 488" fill="none" xmlns="http://www.w3.org/2000/svg">
<circle opacity="0.6" cx="4" cy="4" r="4" fill="#EEEEEE"/>
<circle opacity="0.6" cx="89" cy="4" r="4" fill="#EEEEEE"/>
<circle opacity="0.6" cx="174" cy="4" r="4" fill="#EEEEEE"/>
<circle opacity="0.6" cx="344" cy="4" r="4" fill="#EEEEEE"/>
<circle opacity="0.6" cx="259" cy="4" r="4" fill="#EEEEEE"/>
<circle opacity="0.6" cx="429" cy="4" r="4" fill="#EEEEEE"/>
<circle opacity="0.6" cx="4" cy="64" r="4" fill="#EEEEEE"/>
<circle opacity="0.6" cx="89" cy="64" r="4" fill="#EEEEEE"/>
<circle opacity="0.6" cx="174" cy="64" r="4" fill="#EEEEEE"/>
<circle opacity="0.6" cx="344" cy="64" r="4" fill="#EEEEEE"/>
<circle opacity="0.6" cx="259" cy="64" r="4" fill="#EEEEEE"/>
<circle opacity="0.6" cx="429" cy="64" r="4" fill="#EEEEEE"/>
<circle opacity="0.6" cx="4" cy="124" r="4" fill="#EEEEEE"/>
<circle opacity="0.6" cx="89" cy="124" r="4" fill="#EEEEEE"/>
<circle opacity="0.6" cx="174" cy="124" r="4" fill="#EEEEEE"/>
<circle opacity="0.6" cx="344" cy="124" r="4" fill="#EEEEEE"/>
<circle opacity="0.6" cx="259" cy="124" r="4" fill="#EEEEEE"/>
<circle opacity="0.6" cx="429" cy="124" r="4" fill="#EEEEEE"/>
<circle opacity="0.6" cx="4" cy="184" r="4" fill="#EEEEEE"/>
<circle opacity="0.6" cx="89" cy="184" r="4" fill="#EEEEEE"/>
<circle opacity="0.6" cx="174" cy="184" r="4" fill="#EEEEEE"/>
<circle opacity="0.6" cx="344" cy="184" r="4" fill="#EEEEEE"/>
<circle opacity="0.6" cx="259" cy="184" r="4" fill="#EEEEEE"/>
<circle opacity="0.6" cx="429" cy="184" r="4" fill="#EEEEEE"/>
<circle opacity="0.6" cx="89" cy="244" r="4" fill="#EEEEEE"/>
<circle opacity="0.6" cx="174" cy="244" r="4" fill="#EEEEEE"/>
<circle opacity="0.6" cx="344" cy="244" r="4" fill="#EEEEEE"/>
<circle opacity="0.6" cx="259" cy="244" r="4" fill="#EEEEEE"/>
<circle opacity="0.6" cx="429" cy="244" r="4" fill="#EEEEEE"/>
<circle opacity="0.6" cx="89" cy="304" r="4" fill="#EEEEEE"/>
<circle opacity="0.6" cx="174" cy="304" r="4" fill="#EEEEEE"/>
<circle opacity="0.6" cx="344" cy="304" r="4" fill="#EEEEEE"/>
<circle opacity="0.6" cx="259" cy="304" r="4" fill="#EEEEEE"/>
<circle opacity="0.6" cx="429" cy="304" r="4" fill="#EEEEEE"/>
<circle opacity="0.6" cx="89" cy="364" r="4" fill="#EEEEEE"/>
<circle opacity="0.6" cx="174" cy="364" r="4" fill="#EEEEEE"/>
<circle opacity="0.6" cx="344" cy="364" r="4" fill="#EEEEEE"/>
<circle opacity="0.6" cx="259" cy="364" r="4" fill="#EEEEEE"/>
<circle opacity="0.6" cx="429" cy="364" r="4" fill="#EEEEEE"/>
<circle opacity="0.6" cx="89" cy="424" r="4" fill="#EEEEEE"/>
<circle opacity="0.6" cx="174" cy="424" r="4" fill="#EEEEEE"/>
<circle opacity="0.6" cx="344" cy="424" r="4" fill="#EEEEEE"/>
<circle opacity="0.6" cx="259" cy="424" r="4" fill="#EEEEEE"/>
<circle opacity="0.6" cx="429" cy="424" r="4" fill="#EEEEEE"/>
<circle opacity="0.6" cx="89" cy="484" r="4" fill="#EEEEEE"/>
<circle opacity="0.6" cx="174" cy="484" r="4" fill="#EEEEEE"/>
<circle opacity="0.6" cx="344" cy="484" r="4" fill="#EEEEEE"/>
<circle opacity="0.6" cx="259" cy="484" r="4" fill="#EEEEEE"/>
<circle opacity="0.6" cx="429" cy="484" r="4" fill="#EEEEEE"/>
</svg>
