<svg width="412" height="236" viewBox="0 0 412 236" fill="none" xmlns="http://www.w3.org/2000/svg">
<circle cx="4" cy="4" r="4" fill="#D9D9D9"/>
<circle cx="105" cy="4" r="4" fill="#D9D9D9"/>
<circle cx="206" cy="4" r="4" fill="#D9D9D9"/>
<circle cx="307" cy="4" r="4" fill="#D9D9D9"/>
<circle cx="408" cy="4" r="4" fill="#D9D9D9"/>
<circle cx="4" cy="80" r="4" fill="#D9D9D9"/>
<circle cx="105" cy="80" r="4" fill="#D9D9D9"/>
<circle cx="206" cy="80" r="4" fill="#D9D9D9"/>
<circle cx="307" cy="80" r="4" fill="#D9D9D9"/>
<circle cx="408" cy="80" r="4" fill="#D9D9D9"/>
<circle cx="4" cy="156" r="4" fill="#D9D9D9"/>
<circle cx="408" cy="156" r="4" fill="#D9D9D9"/>
<circle cx="105" cy="156" r="4" fill="#D9D9D9"/>
<circle cx="206" cy="156" r="4" fill="#D9D9D9"/>
<circle cx="307" cy="156" r="4" fill="#D9D9D9"/>
<circle cx="4" cy="232" r="4" fill="#D9D9D9"/>
<circle cx="408" cy="232" r="4" fill="#D9D9D9"/>
<circle cx="105" cy="232" r="4" fill="#D9D9D9"/>
<circle cx="206" cy="232" r="4" fill="#D9D9D9"/>
<circle cx="307" cy="232" r="4" fill="#D9D9D9"/>
</svg>
