<?xml version="1.0" encoding="utf-8"?>
<!-- Generator: Adobe Illustrator 24.0.2, SVG Export Plug-In . SVG Version: 6.00 Build 0)  -->
<svg version="1.1" id="Слой_1" xmlns="http://www.w3.org/2000/svg" xmlns:xlink="http://www.w3.org/1999/xlink" x="0px" y="0px"
	 viewBox="0 0 204 70.8" style="enable-background:new 0 0 204 70.8;" xml:space="preserve">
<style type="text/css">
	.st0{fill:#0098B0;}
	.st1{fill:none;stroke:#0098B0;stroke-width:0.45;stroke-miterlimit:10;}
	.st2{fill:#E83D38;}
	.st3{font-family:'TimesNewRomanPS-BoldItalicMT';}
	.st4{font-size:21.9937px;}
	.st5{font-family:'Corbel';}
	.st6{font-size:10.6816px;}
</style>
<g id="Слой_3">
	<g>
		<path class="st0" d="M36.5,0v33c0,0.7,0.6,1.3,1.3,1.3h33l-27.5-4.7c0,0-1.3,0.2-1.6-1.7L36.5,0z"/>
		<path class="st0" d="M34.6,0l-0.3,33c0,0.7-0.6,1.3-1.3,1.3H0l27.5-4.7c0,0,1.3,0.2,1.6-1.7L34.6,0z"/>
		<path class="st0" d="M36.1,70.8l0.4-33c0-0.7,0.6-1.3,1.3-1.3h33l-27.5,4.7c0,0-1.3-0.2-1.6,1.7L36.1,70.8z"/>
		<path class="st0" d="M34.3,70.8v-33c0-0.7-0.6-1.3-1.3-1.3H0l27.5,4.7c0,0,1.3-0.2,1.6,1.7L34.3,70.8z"/>
	</g>
	<line class="st1" x1="35.6" y1="0" x2="35.2" y2="70.8"/>
	<line class="st1" x1="204" y1="35.4" x2="0" y2="35.4"/>
	<text transform="matrix(1 0 0 1 82.8786 31.6843)" class="st2 st3 st4">Sirius - dent</text>
	<text transform="matrix(0.7278 0 0 1 78.4729 49.3756)" class="st5 st6">СТОМАТОЛОГИЧЕСКАЯ КЛИНИКА</text>
</g>
</svg>
