<?xml version="1.0" encoding="utf-8"?>
<!-- Generator: Adobe Illustrator 24.0.2, SVG Export Plug-In . SVG Version: 6.00 Build 0)  -->
<svg version="1.1" xmlns="http://www.w3.org/2000/svg" xmlns:xlink="http://www.w3.org/1999/xlink" x="0px" y="0px"
	 viewBox="0 0 255.12 141.73" style="enable-background:new 0 0 255.12 141.73;" xml:space="preserve">
<style type="text/css">
	.st0{fill:#FFFFFF;}
	.st1{fill:#0098B0;}
	.st2{fill:#02B0C1;}
	.st3{fill:#53BFD3;}
	.st4{fill:none;stroke:#0098B0;stroke-width:0.45;stroke-miterlimit:10;}
	.st5{fill:#E83D38;}
	.st6{font-family:'TimesNewRomanPS-BoldItalicMT';}
	.st7{font-size:21.9937px;}
	.st8{font-family:'Corbel';}
	.st9{font-size:10.6816px;}
	.st10{fill:#BFBEBE;}
	.st11{fill:#02B0C1;stroke:#04868C;stroke-miterlimit:10;}
</style>
<g id="Слой_2">
	<g id="Слой_1">
		<g>
			
				<text transform="matrix(1 0 0 1 55.3689 -119.1724)" style="fill:#2E3139; font-family:'OpenSans-BoldItalic'; font-size:10.1692px;">Имя Стоматолога</text>
		</g>
		<g>
			<g>
				<text transform="matrix(1 0 0 1 77.0268 -111.9548)" style="fill:#4398D3; font-family:'OpenSans'; font-size:4.6935px;">Зубной врач</text>
			</g>
		</g>
		<path class="st0" d="M311.57-218c1.29-0.4,2.38-0.2,2.38-0.2c4.25,0,8.21,2.93,8.98,3.53c0.09,0.07,0.15,0.12,0.15,0.12
			c0.18,0.11,0.35,0.22,0.53,0.32c0.49,0.33,0.98,0.64,1.49,0.93c0.03,0.02,0.07,0.04,0.1,0.06c1.08,0.62,2.21,1.17,3.39,1.59
			c1.18,0.41,2.41,0.7,3.65,0.74c1.23,0.03,2.51-0.14,3.53-0.78c-1.13,0.41-2.33,0.32-3.44,0.06c-1.11-0.27-2.16-0.75-3.13-1.34
			c-0.97-0.59-1.88-1.28-2.73-2.04c-0.08-0.08-0.16-0.16-0.25-0.23c1.54-1.06,4.76-2.95,8.17-2.95c0,0,1.1-0.2,2.4,0.21
			c2.08,0.65,4.7,2.85,4.17,9.89c0,0-0.35,6.81-2.51,13.6c-1.43,4.51-3.65,9-7.1,11.48c0,0-0.31,0.2-0.78,0.31
			c-0.99,0.24-2.69,0.08-3.6-3.23c0,0-0.76-3.4-1.73-5.26c-0.28-0.39-0.67-0.75-1.15-0.74c0,0-0.35-0.1-0.75,0.33
			c-0.35,0.55-0.68,1.34-0.96,2.16c-0.07,0.2-0.13,0.39-0.2,0.59c-0.48,1.5-0.8,2.92-0.8,2.92c-0.89,3.24-2.53,3.46-3.53,3.25
			c-0.5-0.11-0.85-0.32-0.85-0.32c-3.45-2.48-5.68-6.99-7.11-11.5c-2.15-6.78-2.5-13.58-2.5-13.58
			C306.85-215.17,309.48-217.36,311.57-218z"/>
		<path class="st0" d="M283.01-41.37"/>
		<path class="st1" d="M220.12-24.94v-141.73h-66.98c0,0,38.52,65.33,5.81,141.73"/>
		<path class="st2" d="M235.23-24.94v-141.73h-82.08c0,0,46.69,67.17,20.92,141.73"/>
		<path class="st3" d="M255.12-24.94v-141.73H153.14c0,0,59,59.33,37.75,141.73"/>
		<path class="st1" d="M12.5-166.67v141.73H37c0,0-35.85-59.73-9.03-141.73"/>
		<path class="st2" d="M6.66-166.67v141.73H37c0,0-41.34-59.73-15.34-141.73"/>
		<path class="st3" d="M0-166.67v141.73h37c0,0-48-59.73-22-141.73"/>
	</g>
</g>
<g id="Слой_3">
	<g>
		<path class="st1" d="M56.03-86.28v19.81c0,0.42,0.34,0.76,0.76,0.76l19.78-0.01l-16.5-2.83c0,0-0.77,0.09-0.96-1L56.03-86.28z"/>
		<path class="st1" d="M54.92-86.28l-0.2,19.81c0,0.42-0.34,0.76-0.76,0.76l-19.78-0.01l16.5-2.83c0,0,0.77,0.09,0.96-1L54.92-86.28
			z"/>
		<path class="st1" d="M55.81-43.84l0.24-19.81c0-0.42,0.34-0.76,0.76-0.76l19.78,0.01l-16.5,2.83c0,0-0.77-0.09-0.96,1L55.81-43.84
			z"/>
		<path class="st1" d="M54.73-43.84v-19.81c0-0.42-0.34-0.76-0.76-0.76L34.18-64.4l16.5,2.83c0,0,0.77-0.09,0.96,1L54.73-43.84z"/>
	</g>
	<line class="st4" x1="55.49" y1="-86.28" x2="55.27" y2="-43.84"/>
	<line class="st4" x1="156.52" y1="-65.09" x2="34.16" y2="-65.09"/>
	<text transform="matrix(1 0 0 1 83.8674 -67.2889)" class="st5 st6" style="font-size:13.1894px;">Sirius - dent</text>
	<text transform="matrix(0.7278 0 0 1 81.2249 -56.6795)" class="st8" style="font-size:6.4057px;">СТОМАТОЛОГИЧЕСКАЯ КЛИНИКА</text>
	<g>
		<path class="st1" d="M63.66,27.92v33.04c0,0.7,0.57,1.27,1.27,1.27l32.99-0.02l-27.51-4.72c0,0-1.29,0.15-1.61-1.67L63.66,27.92z"
			/>
		<path class="st1" d="M61.81,27.91l-0.34,33.04c0,0.7-0.57,1.27-1.27,1.27L27.21,62.2l27.51-4.72c0,0,1.29,0.15,1.61-1.67
			L61.81,27.91z"/>
		<path class="st1" d="M63.29,98.68l0.39-33.04c0-0.7,0.57-1.27,1.27-1.27l32.99,0.02l-27.51,4.72c0,0-1.29-0.15-1.61,1.67
			L63.29,98.68z"/>
		<path class="st1" d="M61.49,98.69V65.65c0-0.7-0.57-1.27-1.27-1.27L27.23,64.4l27.51,4.72c0,0,1.29-0.15,1.61,1.67L61.49,98.69z"
			/>
	</g>
	<line class="st4" x1="62.76" y1="27.91" x2="62.4" y2="98.69"/>
	<line class="st4" x1="231.23" y1="63.25" x2="27.19" y2="63.25"/>
	<text transform="matrix(1 0 0 1 110.0786 59.5843)" class="st5 st6 st7">Sirius - dent</text>
	<text transform="matrix(0.7278 0 0 1 105.6729 77.2757)" class="st8 st9">СТОМАТОЛОГИЧЕСКАЯ КЛИНИКА</text>
	<rect y="121.67" class="st10" width="255.12" height="20.06"/>
</g>
<g id="Слой_4">
	<path class="st11" d="M190.63-133.37c0,15.71,12.73,28.45,28.43,28.45c15.7,0,28.43-12.74,28.43-28.45
		c0-15.71-12.73-28.45-28.43-28.45C203.36-161.82,190.63-149.08,190.63-133.37z"/>
	<path class="st0" d="M206.47-150.93c1.29-0.4,2.38-0.2,2.38-0.2c4.25,0,8.21,2.93,8.98,3.53c0.09,0.07,0.15,0.12,0.15,0.12
		c0.18,0.11,0.35,0.22,0.53,0.32c0.49,0.33,0.98,0.64,1.49,0.93c0.03,0.02,0.07,0.04,0.1,0.06c1.08,0.62,2.21,1.17,3.39,1.59
		c1.18,0.41,2.41,0.7,3.65,0.74c1.23,0.03,2.51-0.14,3.53-0.78c-1.13,0.41-2.33,0.32-3.44,0.06c-1.11-0.27-2.16-0.75-3.13-1.34
		c-0.97-0.59-1.88-1.28-2.73-2.04c-0.08-0.08-0.16-0.16-0.25-0.23c1.54-1.06,4.76-2.95,8.17-2.95c0,0,1.1-0.2,2.4,0.21
		c2.09,0.65,4.7,2.85,4.17,9.89c0,0-0.35,6.81-2.51,13.6c-1.43,4.51-3.65,9-7.1,11.48c0,0-0.31,0.2-0.78,0.31
		c-0.99,0.24-2.69,0.08-3.6-3.23c0,0-0.76-3.4-1.73-5.26c-0.28-0.39-0.67-0.75-1.15-0.74c0,0-0.35-0.1-0.75,0.33
		c-0.35,0.55-0.68,1.34-0.96,2.16c-0.07,0.2-0.13,0.39-0.2,0.59c-0.48,1.5-0.8,2.92-0.8,2.92c-0.89,3.24-2.53,3.46-3.53,3.25
		c-0.5-0.11-0.85-0.32-0.85-0.32c-3.45-2.48-5.68-6.99-7.11-11.5c-2.15-6.78-2.5-13.58-2.5-13.58
		C201.75-148.09,204.38-150.28,206.47-150.93z"/>
</g>
<g id="Слой_5">
	<g>
		<g>
			<g>
				<g>
					<text transform="matrix(1 0 0 1 210.9794 -64.4637)"><tspan x="0" y="0" style="fill:#302D2A; font-family:'OpenSans'; font-size:4.0855px;">www.siriusdent</tspan><tspan x="29.51" y="0" style="fill:#302D2A; font-family:'OpenSans-Semibold'; font-size:4.0855px;">.</tspan><tspan x="30.63" y="0" style="fill:#302D2A; font-family:'OpenSans'; font-size:4.0855px;">com</tspan></text>
				</g>
			</g>
			<g>
				<path class="st1" d="M200.93-66.68c0.07,0,0.13,0.01,0.2,0.03c0.23-0.26,0.49-0.5,0.77-0.71c-0.01-0.05-0.02-0.1-0.02-0.15
					c0-0.07,0.01-0.14,0.03-0.21c-0.31-0.22-0.65-0.41-1.02-0.56c-0.34,0.21-0.64,0.48-0.87,0.8c0.18,0.31,0.38,0.6,0.62,0.86
					C200.74-66.66,200.83-66.68,200.93-66.68L200.93-66.68z M200.27-66.02c0-0.09,0.02-0.18,0.05-0.26
					c-0.21-0.23-0.41-0.49-0.57-0.75c-0.21,0.42-0.33,0.89-0.33,1.4c0,0.58,0.16,1.13,0.44,1.59c0.1-0.56,0.29-1.09,0.55-1.57
					C200.32-65.73,200.27-65.87,200.27-66.02L200.27-66.02z M202.55-68.18c0.17,0,0.33,0.07,0.45,0.18
					c0.35-0.15,0.71-0.26,1.09-0.34c-0.46-0.26-0.99-0.41-1.55-0.41c-0.39,0-0.75,0.07-1.1,0.2c0.27,0.13,0.53,0.29,0.77,0.47
					C202.31-68.14,202.42-68.18,202.55-68.18L202.55-68.18z M203.54-65.06c0.04-0.09,0.1-0.16,0.17-0.22
					c-0.2-0.6-0.51-1.15-0.91-1.62c-0.08,0.03-0.17,0.05-0.26,0.05c-0.14,0-0.28-0.05-0.38-0.12c-0.24,0.18-0.46,0.39-0.66,0.61
					c0.06,0.1,0.1,0.22,0.1,0.35c0,0.07-0.01,0.14-0.03,0.2C202.15-65.43,202.82-65.17,203.54-65.06L203.54-65.06z M204.39-64.17
					c0.01,0.13,0.01,0.25,0.01,0.38c0,0.23-0.01,0.45-0.04,0.66c0.53-0.38,0.93-0.93,1.13-1.57c-0.24,0.06-0.49,0.1-0.74,0.12
					C204.7-64.39,204.57-64.24,204.39-64.17L204.39-64.17z M203.38-64.62c-0.77-0.13-1.48-0.42-2.1-0.84
					c-0.1,0.06-0.22,0.1-0.35,0.1c-0.05,0-0.09-0.01-0.14-0.01c-0.3,0.56-0.49,1.19-0.54,1.85c0.3,0.32,0.66,0.57,1.06,0.75
					C201.83-63.55,202.53-64.19,203.38-64.62L203.38-64.62z M204.62-67.94c-0.5,0.05-0.98,0.17-1.42,0.36c0,0.02,0,0.04,0,0.07
					c0,0.1-0.03,0.2-0.07,0.29c0.44,0.52,0.79,1.13,1,1.79c0.27,0.01,0.5,0.17,0.6,0.4c0.3-0.03,0.59-0.09,0.87-0.17
					c0.02-0.14,0.03-0.29,0.03-0.44C205.65-66.55,205.25-67.37,204.62-67.94L204.62-67.94z M203.71-64.26
					c-0.79,0.37-1.46,0.94-1.94,1.64c0.24,0.06,0.49,0.09,0.76,0.09c0.47,0,0.91-0.1,1.31-0.29c0.06-0.31,0.1-0.64,0.1-0.97
					c0-0.12,0-0.24-0.01-0.36C203.85-64.17,203.78-64.21,203.71-64.26L203.71-64.26z M203.71-64.26"/>
			</g>
		</g>
		<g>
			<g>
				<g>
					<text transform="matrix(1 0 0 1 210.9785 -76.3094)" style="fill:#302D2A; font-family:'OpenSans'; font-size:4.0855px;">Одесса, ул. Пушкинская</text>
				</g>
			</g>
			<g>
				<path class="st1" d="M202.53-78.82c-0.35,0-0.63,0.28-0.63,0.63c0,0.35,0.28,0.63,0.63,0.63c0.35,0,0.63-0.28,0.63-0.63
					C203.16-78.54,202.88-78.82,202.53-78.82z"/>
				<path class="st1" d="M205.4-78.69c-0.16-0.38-0.39-0.71-0.67-0.99c-0.28-0.28-0.61-0.5-0.99-0.67
					c-0.38-0.16-0.78-0.25-1.21-0.25c-0.29,0-0.56,0.04-0.83,0.11c-0.27,0.07-0.51,0.18-0.74,0.31c-0.23,0.13-0.44,0.3-0.63,0.49
					c-0.19,0.19-0.35,0.4-0.49,0.63c-0.13,0.23-0.24,0.48-0.31,0.74c-0.07,0.27-0.11,0.54-0.11,0.83c0,0.29,0.04,0.56,0.11,0.83
					c0.08,0.27,0.18,0.51,0.31,0.74c0.14,0.23,0.3,0.44,0.49,0.63c0.19,0.19,0.4,0.35,0.63,0.49c0.23,0.13,0.48,0.24,0.74,0.31
					c0.27,0.08,0.54,0.11,0.83,0.11c0.29,0,0.56-0.04,0.83-0.11c0.27-0.07,0.51-0.18,0.74-0.31c0.23-0.13,0.44-0.3,0.63-0.49
					c0.19-0.19,0.35-0.4,0.48-0.63c0.13-0.23,0.24-0.48,0.32-0.74c0.07-0.27,0.11-0.54,0.11-0.83
					C205.65-77.91,205.56-78.31,205.4-78.69z M203.22-76.84c-0.25,0.45-0.49,0.82-0.51,0.84l-0.18,0.27l-0.18-0.27
					c-0.01-0.02-0.26-0.39-0.51-0.84c-0.35-0.63-0.52-1.07-0.52-1.34c0-0.67,0.54-1.21,1.21-1.21c0.67,0,1.21,0.54,1.21,1.21
					C203.74-77.92,203.57-77.48,203.22-76.84z"/>
			</g>
		</g>
		<g>
			<g>
				<g>
					<text transform="matrix(1 0 0 1 210.0966 -40.41)" style="fill:#302D2A; font-family:'OpenSans'; font-size:4.0855px;">+ (38) 065 986 54 08</text>
				</g>
			</g>
			<g>
				<path class="st1" d="M202.77-45.06c-1.72,0-3.11,1.39-3.11,3.11c0,1.72,1.39,3.11,3.11,3.11s3.11-1.39,3.11-3.11
					C205.88-43.66,204.49-45.06,202.77-45.06L202.77-45.06z M204.41-40.52l-0.25,0.25c-0.04,0.04-0.17,0.07-0.18,0.07
					c-0.79,0.01-1.55-0.3-2.1-0.86c-0.56-0.56-0.87-1.32-0.86-2.11c0,0,0.03-0.13,0.07-0.17l0.25-0.25
					c0.09-0.09,0.27-0.13,0.39-0.09l0.05,0.02c0.12,0.04,0.25,0.18,0.28,0.3l0.13,0.46c0.03,0.13-0.01,0.3-0.1,0.39l-0.17,0.17
					c0.16,0.61,0.64,1.08,1.24,1.24l0.17-0.17c0.09-0.09,0.27-0.14,0.39-0.1l0.46,0.13c0.12,0.03,0.26,0.16,0.3,0.28l0.02,0.05
					C204.54-40.78,204.5-40.61,204.41-40.52L204.41-40.52z M204.41-40.52"/>
			</g>
		</g>
		<g>
			<g>
				<g>
					<text transform="matrix(1 0 0 1 210.8749 -52.618)" style="fill:#302D2A; font-family:'OpenSans'; font-size:4.0855px;">stomatolog@gmail.com</text>
				</g>
			</g>
			<g>
				<path class="st1" d="M202.43-50.68c-0.29,0-0.56-0.04-0.83-0.11c-0.27-0.07-0.51-0.18-0.74-0.31c-0.23-0.14-0.44-0.3-0.63-0.49
					c-0.19-0.19-0.35-0.4-0.49-0.63c-0.14-0.23-0.24-0.48-0.32-0.74c-0.07-0.27-0.11-0.54-0.11-0.83c0-0.29,0.04-0.56,0.11-0.83
					c0.08-0.27,0.18-0.51,0.32-0.74c0.13-0.23,0.3-0.44,0.49-0.63c0.19-0.19,0.4-0.35,0.63-0.49c0.23-0.13,0.48-0.24,0.74-0.31
					c0.26-0.07,0.54-0.11,0.83-0.11c0.43,0,0.83,0.08,1.21,0.25c0.38,0.16,0.71,0.39,0.99,0.67c0.28,0.28,0.5,0.61,0.67,0.99
					c0.16,0.38,0.25,0.78,0.25,1.21c0,0.29-0.04,0.56-0.11,0.83c-0.08,0.27-0.18,0.51-0.31,0.74c-0.13,0.23-0.3,0.44-0.49,0.63
					c-0.19,0.19-0.4,0.35-0.63,0.49c-0.23,0.13-0.48,0.24-0.74,0.31C202.99-50.72,202.72-50.68,202.43-50.68L202.43-50.68z
					 M203.93-55.07h-2.95c-0.03,0-0.05,0.01-0.07,0.03c-0.02,0.02-0.03,0.04-0.03,0.08v0.33c0,0.02,0.01,0.02,0.02,0.02l1.55,0.88
					l0.01,0.01c0.01,0,0.01,0,0.02-0.01l1.5-0.88c0.01,0,0.01-0.01,0.02-0.01c0,0,0.01,0,0.02-0.01c0.02,0,0.03-0.01,0.03-0.02
					v-0.32c0-0.03-0.01-0.06-0.03-0.08C203.98-55.06,203.96-55.07,203.93-55.07L203.93-55.07z M201.81-53.75
					c0,0,0.01-0.01,0.01-0.02c0-0.01,0-0.02-0.01-0.02l-0.89-0.51c-0.01,0-0.02,0-0.03,0c-0.01,0-0.01,0.01-0.01,0.02v1.34
					c0,0.01,0.01,0.02,0.02,0.02h0.01c0.01,0,0.01,0,0.01-0.01L201.81-53.75z M202.9-53.65c0-0.01-0.01-0.01-0.03-0.01l-0.34,0.2
					c-0.04,0.02-0.08,0.02-0.13,0l-0.3-0.17c-0.01-0.01-0.02-0.01-0.03,0l-1.14,1.06c-0.01,0-0.01,0.01-0.01,0.02
					c0,0,0,0.01,0.01,0.02c0.03,0.01,0.04,0.01,0.05,0.01h2.92c0.01,0,0.02,0,0.03-0.01c0-0.02,0-0.03-0.01-0.03L202.9-53.65z
					 M204.02-54.32h-0.03l-0.85,0.5c-0.01,0-0.01,0.01-0.01,0.02c0,0,0,0.01,0.01,0.02l0.85,0.92c0.01,0.01,0.01,0.01,0.02,0.01
					h0.01c0.01-0.01,0.02-0.02,0.02-0.02v-1.42C204.04-54.3,204.03-54.31,204.02-54.32L204.02-54.32z M204.02-54.32"/>
			</g>
		</g>
	</g>
</g>
</svg>
